<mxfile host="app.diagrams.net" agent="Mozilla/5.0 (Windows NT 10.0; Win64; x64) AppleWebKit/537.36 (KHTML, like Gecko) Chrome/138.0.0.0 Safari/537.36" version="28.0.4">
  <diagram name="Сторінка-1" id="Q-gHsdSEGa7rqB-DRG0M">
    <mxGraphModel dx="974" dy="388" grid="1" gridSize="10" guides="1" tooltips="1" connect="1" arrows="1" fold="1" page="1" pageScale="1" pageWidth="827" pageHeight="1169" math="0" shadow="0">
      <root>
        <mxCell id="0" />
        <mxCell id="1" parent="0" />
        <mxCell id="wt3ssOBClgndUsdf-WFF-1" value="&lt;h1 style=&quot;margin-top: 0px;&quot;&gt;my_marketplace/&lt;br/&gt;├── my_marketplace/  # Основные настройки проекта&lt;br/&gt;│   ├── settings.py&lt;br/&gt;│   ├── urls.py&lt;br/&gt;│   └── wsgi.py&lt;br/&gt;├── manage.py&lt;br/&gt;├── users/         # Приложение для управления пользователями (кастомная модель User)&lt;br/&gt;│   ├── models.py&lt;br/&gt;│   ├── views.py&lt;br/&gt;│   ├── urls.py&lt;br/&gt;│   └── forms.py&lt;br/&gt;├── products/      # Приложение для товаров и категорий&lt;br/&gt;│   ├── models.py&lt;br/&gt;│   ├── views.py&lt;br/&gt;│   ├── urls.py&lt;br/&gt;│   ├── forms.py&lt;br/&gt;│   └── admin.py&lt;br/&gt;├── orders/        # Приложение для заказов и корзины&lt;br/&gt;│   ├── models.py&lt;br/&gt;│   ├── views.py&lt;br/&gt;│   ├── urls.py&lt;br/&gt;│   └── admin.py&lt;br/&gt;├── payments/      # Приложение для интеграции платежных систем&lt;br/&gt;│   ├── models.py&lt;br/&gt;│   ├── views.py&lt;br/&gt;│   ├── urls.py&lt;br/&gt;│   └── services.py # Для логики взаимодействия с платежными шлюзами&lt;br/&gt;├── sellers/       # Приложение для управления продавцами и их магазинами&lt;br/&gt;│   ├── models.py&lt;br/&gt;│   ├── views.py&lt;br/&gt;│   ├── urls.py&lt;br/&gt;│   └── forms.py&lt;br/&gt;├── reviews/       # Приложение для отзывов и рейтингов&lt;br/&gt;│   ├── models.py&lt;br/&gt;│   ├── views.py&lt;br/&gt;│   └── urls.py&lt;br/&gt;├── notifications/ # Приложение для уведомлений&lt;br/&gt;│   ├── models.py&lt;br/&gt;│   ├── views.py&lt;br/&gt;│   └── services.py&lt;br/&gt;├── static/        # Статические файлы (CSS, JS, изображения)&lt;br/&gt;└── templates/     # Шаблоны Django&lt;/h1&gt;" style="text;html=1;whiteSpace=wrap;overflow=hidden;rounded=0;" vertex="1" parent="1">
          <mxGeometry x="80" y="10" width="330" height="1140" as="geometry" />
        </mxCell>
      </root>
    </mxGraphModel>
  </diagram>
</mxfile>
